#!OML:ASF F:\VICON\USERDATA\INSTALL\Justin_Nancy\Justin_Nancy.ASF
:FULLY-SPECIFIED
:DEGREES
68
root -0.366262 16.7207 11.4799 4.90178 0.0300028 3.29636
lowerback 10.1373 0.461281 -4.86355
upperback -0.548598 0.0576155 0.529625
thorax -6.2854 0.198255 3.292
lowerneck -21.9394 -4.91552 -9.45255
upperneck 14.4051 -5.8244 10.3371
head 8.6898 -2.19839 4.27394
rclavicle -7.10655e-015 -2.78299e-015
rhumerus -58.1387 5.41125 -91.6574
rradius 103.232
rwrist -6.53366
rhand -12.5353 26.8055
rfingers 7.12502
rthumb 13.5411 -2.73422
lclavicle -7.10655e-015 -2.78299e-015
lhumerus -40.3991 -9.08135 94.9016
lradius 107.43
lwrist 26.534
lhand -14.9014 6.89433
lfingers 7.12502
lthumb 11.2599 36.5721
rfemur -22.5995 -9.83817 10.8154
rtibia 106.763
rfoot 12.0881 -2.48454
rtoes 9.90739
lfemur -15.85 -1.61168 -28.9066
ltibia 44.9022
lfoot -21.1173 4.85629
ltoes -13.6423
69
root -0.365242 16.7544 12.0431 5.07979 -0.221295 3.57858
lowerback 9.86268 0.306445 -5.1475
upperback -0.662933 -0.165759 0.601194
thorax -6.23031 0.100128 3.5611
lowerneck -21.9125 -4.77792 -9.37264
upperneck 14.4788 -5.57997 9.9102
head 8.66545 -2.12402 4.14813
rclavicle 6.70898e-015 -1.98785e-015
rhumerus -59.6457 4.86144 -91.3327
rradius 103.519
rwrist -7.06756
rhand -12.1274 27.1582
rfingers 7.12502
rthumb 13.9342 -2.35486
lclavicle 6.70898e-015 -1.98785e-015
lhumerus -38.5992 -9.22541 94.9877
lradius 108.727
lwrist 27.3904
lhand -14.2355 6.7747
lfingers 7.12502
lthumb 11.902 36.4164
rfemur -25.8528 -10.6877 10.7517
rtibia 106.935
rfoot 10.6271 -2.21492
rtoes 7.64745
lfemur -13.3956 -1.59804 -29.293
ltibia 43.986
lfoot -20.6791 4.68392
ltoes -16.085
70
root -0.360284 16.7931 12.6304 4.71468 -1.06416 3.66964
lowerback 9.89233 0.360278 -5.23364
upperback -0.671223 -0.101824 0.672537
thorax -6.2626 0.136728 3.676
lowerneck -21.7212 -4.61758 -9.19955
upperneck 14.5918 -5.32727 9.37011
head 8.62081 -2.05641 3.9698
rclavicle -5.46658e-016 -1.47101e-014
rhumerus -61.2731 4.45493 -91.1248
rradius 103.975
rwrist -8.04947
rhand -11.9998 27.5366
rfingers 7.12502
rthumb 14.0572 -1.96796
lclavicle -5.46658e-016 -1.47101e-014
lhumerus -37.0663 -9.36484 95.0247
lradius 110.245
lwrist 28.3876
lhand -14.3887 7.07368
lfingers 7.12502
lthumb 11.7543 36.7239
rfemur -28.4046 -10.4724 11.1207
rtibia 106.472
rfoot 9.18666 -2.00882
rtoes 5.92742
lfemur -10.2609 -1.02347 -29.5649
ltibia 42.8716
lfoot -19.8696 4.65445
ltoes -18.553
71
root -0.375226 16.855 13.1908 4.94598 -1.30017 3.42998
lowerback 9.78874 0.176092 -5.17952
upperback -0.832359 -0.320441 0.961287
thorax -6.35133 0.0388664 3.98426
lowerneck -21.6181 -4.36393 -9.08145
upperneck 14.4729 -4.92315 8.91384
head 8.50419 -1.91028 3.84818
rclavicle -8.84592e-015 -4.77083e-015
rhumerus -62.4407 4.40156 -90.8975
rradius 104.361
rwrist -9.33805
rhand -11.9363 27.7073
rfingers 7.12502
rthumb 14.1184 -1.79308
lclavicle -8.84592e-015 -4.77083e-015
lhumerus -35.6211 -9.29355 95.0696
lradius 112
lwrist 29.2145
lhand -14.6004 7.65988
lfingers 7.12502
lthumb 11.5502 37.3216
rfemur -31.6898 -10.9218 12.25
rtibia 105.567
rfoot 7.54218 -1.76564
rtoes 4.42062
lfemur -7.85697 -0.905494 -29.2727
ltibia 41.369
lfoot -18.014 4.16182
ltoes -22.7015
72
root -0.389435 16.9312 13.7585 5.3951 -0.598402 3.87253
lowerback 9.49685 -0.363947 -5.62715
upperback -1.07253 -1.07177 1.12511
thorax -6.35048 -0.306085 4.52023
lowerneck -21.4557 -3.98405 -9.06476
upperneck 14.3749 -4.35763 8.62821
head 8.37935 -1.67675 3.82531
rclavicle 5.11871e-015 2.78299e-015
rhumerus -63.4641 4.53524 -90.6699
rradius 104.747
rwrist -10.8237
rhand -11.7983 27.8418
rfingers 7.12502
rthumb 14.2514 -1.6492
lclavicle 5.11871e-015 2.78299e-015
lhumerus -34.3378 -8.972 95.0848
lradius 113.807
lwrist 30.0191
lhand -14.1155 7.41284
lfingers 7.12502
lthumb 12.0177 37.0478
rfemur -34.5989 -12.4623 12.5841
rtibia 104.171
rfoot 5.45204 -1.21711
rtoes 2.87299
lfemur -5.72192 -1.46073 -29.5758
ltibia 39.7948
lfoot -15.5967 2.92292
ltoes -26.206
73
root -0.367295 16.979 14.3881 4.93478 1.22723 6.43583
lowerback 9.27386 -1.26352 -7.44664
upperback -0.900912 -2.48998 0.608776
thorax -5.82535 -0.976055 5.18448
lowerneck -21.5137 -3.61378 -9.06711
upperneck 14.5858 -3.82006 8.44622
head 8.40405 -1.44123 3.84059
rclavicle -2.46493e-014 -3.97569e-015
rhumerus -64.5842 4.6825 -90.4845
rradius 105.206
rwrist -12.0319
rhand -11.6045 28.2152
rfingers 7.12502
rthumb 14.4381 -1.26254
lclavicle -2.46493e-014 -3.97569e-015
lhumerus -33.2869 -8.65558 95.0527
lradius 115.681
lwrist 30.6251
lhand -13.8588 6.99689
lfingers 7.12502
lthumb 12.2653 36.6172
rfemur -34.8434 -15.3879 9.56965
rtibia 102.287
rfoot 2.5117 0.25367
rtoes -0.813058
lfemur -1.88529 -2.83917 -32.2706
ltibia 37.7304
lfoot -12.9968 1.40598
ltoes -27.9421
